<?xml version="1.0" encoding="utf-8"?>
<!-- Generator: Adobe Illustrator 25.4.4, SVG Export Plug-In . SVG Version: 6.00 Build 0)  -->
<svg version="1.1" id="Layer_2_00000132051659398808815640000014190602945286875031_"
	 xmlns="http://www.w3.org/2000/svg" xmlns:xlink="http://www.w3.org/1999/xlink" x="0px" y="0px" viewBox="0 0 712.4 207.5"
	 style="enable-background:new 0 0 712.4 207.5;" xml:space="preserve">
<style type="text/css">
	.st0{fill:#ECB72B;}
	.st1{fill:#FFFFFF;}
	.st2{fill:none;}
	.st3{fill:#E3A82B;}
	.st4{fill:url(#SVGID_1_);}
	.st5{fill:url(#SVGID_00000127752189251912024140000011997861516390705820_);}
	.st6{fill:url(#SVGID_00000173144549431109949240000016824380955620737176_);}
	.st7{fill:url(#SVGID_00000039815473084826099380000004268267313521207936_);}
	.st8{fill:url(#SVGID_00000168836416703588229020000001861823162353627570_);}
	.st9{fill:url(#SVGID_00000110447996873093298040000014545310420243382173_);}
	.st10{fill:url(#SVGID_00000080925157634784471340000003780836542190657424_);}
	.st11{fill:url(#SVGID_00000090268243306009222990000009810943103388541063_);}
	.st12{fill:url(#SVGID_00000005264775720295582690000007861722203841366941_);}
	.st13{fill:#65799E;}
</style>
<g>
	<g>
		<g>
			<g>
				<rect x="150.8" y="0.6" class="st0" width="1.4" height="132.5"/>
				<rect x="150.8" y="0.6" class="st0" width="1.4" height="132.5"/>
			</g>
		</g>
		<g>
			<g>
				<path class="st1" d="M7.7,123.8c0-1.3-0.1-1.7-0.9-1.7L6.2,122c-0.1-0.1-0.1-0.4,0-0.4c1-0.1,2.2-0.1,3.9-0.1
					c1.1,0,2.2,0.1,3,0.5s1.4,1.1,1.4,2.2c0,1.3-0.8,2-1.8,2.5c0,0.2,0.1,0.2,0.3,0.3c1,0.2,2.4,1.1,2.4,3c0,2.1-1.5,3.5-4.8,3.5
					c-0.5,0-1.4-0.1-2.1-0.1c-0.8,0-1.4,0-2.1,0.1c-0.1-0.1-0.1-0.3,0-0.4l0.3-0.1c0.9-0.2,1-0.4,1-2.2
					C7.7,130.8,7.7,123.8,7.7,123.8z M9.1,126.2c0,0.5,0,0.5,0.9,0.5c1.8-0.1,2.8-0.6,2.8-2.3c0-1.8-1.3-2.4-2.7-2.4
					c-0.4,0-0.7,0-0.8,0.1c-0.2,0.1-0.3,0.1-0.3,0.5L9.1,126.2L9.1,126.2z M9.1,130.4c0,0.6,0,1.6,0.4,2c0.3,0.4,0.9,0.5,1.4,0.5
					c1.6,0,2.8-0.7,2.8-2.5c0-1.4-0.7-3.1-3.6-3.1c-1,0-1,0.1-1,0.5C9.1,127.8,9.1,130.4,9.1,130.4z"/>
				<path class="st1" d="M19.1,122.8c1.3-1,3-1.5,4.8-1.5c1,0,2.3,0.2,3.2,0.4c0.2,0.1,0.3,0.1,0.5,0.1c0,0.4,0.1,1.5,0.3,2.6
					c-0.1,0.1-0.4,0.1-0.5,0c-0.3-1.2-1.1-2.6-3.7-2.6c-2.7,0-5.1,1.7-5.1,5.4c0,3.8,2.4,5.8,5.3,5.8c2.3,0,3.3-1.5,3.7-2.6
					c0.1-0.1,0.4-0.1,0.5,0.1c-0.1,0.9-0.6,2.1-0.9,2.5c-0.2,0-0.4,0.1-0.6,0.2c-0.4,0.1-1.7,0.4-2.8,0.4c-1.6,0-3.2-0.3-4.5-1.2
					c-1.4-1-2.5-2.6-2.5-4.9C16.8,125.5,17.7,123.8,19.1,122.8"/>
				<path class="st1" d="M36.4,130.6c0,1.9,0,2.1,1.2,2.2l0.5,0.1c0.1,0.1,0.1,0.4,0,0.4c-1,0-1.6-0.1-2.3-0.1c-0.8,0-1.4,0-2.2,0.1
					c-0.1-0.1-0.1-0.3,0-0.4l0.4-0.1c1-0.1,1.1-0.4,1.1-2.2V124c0-1.5,0-1.8-0.8-1.9l-0.6-0.1c-0.1-0.1-0.1-0.4,0-0.4
					c0.9-0.1,2.1-0.1,3.5-0.1c1.5,0,2.6,0.2,3.4,0.7s1.4,1.4,1.4,2.7c0,1.6-1,2.5-1.8,2.8c-0.8,0.4-1.7,0.5-2.5,0.5
					c-0.1-0.1-0.1-0.3,0-0.4c1.9-0.4,2.6-1.5,2.6-3c0-1.7-1-2.9-2.9-2.9c-0.9,0-1,0.1-1,0.6C36.4,122.6,36.4,130.6,36.4,130.6z"/>
				<path class="st1" d="M44.6,130.8c0,1.2,0.3,2.1,1.7,2.1c0.5,0,1.1-0.2,1.5-0.5c0.2-0.2,0.4-0.5,0.4-1v-2.9
					c0-1.2-0.1-1.2-0.7-1.4l-0.2-0.1c-0.1-0.1-0.1-0.3,0-0.4c0.7,0,1.7-0.1,2.1-0.3c0.1,0,0.1,0.1,0.2,0.1c0,0.3-0.1,0.9-0.1,1.6v3
					c0,1.4,0.1,2,0.6,2c0.2,0,0.4,0,0.7-0.1c0.1,0.1,0.1,0.4,0,0.5c-0.7,0.1-1.7,0.3-2.3,0.7c-0.1,0-0.2-0.1-0.2-0.1v-0.7
					c0-0.2-0.1-0.3-0.2-0.3c-0.5,0.3-1.4,0.9-2.5,0.9c-1.6,0-2.2-0.8-2.2-2.2v-3c0-1.1,0-1.3-0.5-1.5l-0.2-0.1
					c-0.1-0.1-0.1-0.3,0-0.4c0.8,0,1.5-0.2,1.9-0.3c0.1,0,0.2,0.1,0.2,0.1c0,0.3-0.1,0.7-0.1,1.6v2.7H44.6z"/>
				<path class="st1" d="M52.1,123.2c0-1.1,0-1.2-0.6-1.5l-0.2-0.1c-0.1-0.1-0.1-0.3,0-0.4c0.4-0.2,1.3-0.4,2-0.8
					c0.1,0,0.1,0,0.2,0.1c0,0.6-0.1,1.4-0.1,2.2v3.4c0,0.3,0.1,0.4,0.2,0.4c0.5-0.3,1.2-0.6,2.1-0.6c2,0,3.4,1.5,3.4,3.5
					c0,2.4-1.7,4-4.1,4c-0.7,0-1.2-0.1-1.5-0.2c-0.4-0.1-0.6-0.2-0.8-0.2c-0.1,0-0.3,0.1-0.4,0.3c0,0,0,0-0.1,0s-0.1,0-0.2-0.1
					c0-0.2,0-0.6,0-1.5L52.1,123.2L52.1,123.2z M53.4,130.9c0,0.6,0.1,1.2,0.4,1.6c0.3,0.4,0.8,0.6,1.4,0.6c1.7,0,2.3-1.4,2.3-3
					c0-1.8-0.9-3.3-2.7-3.3c-0.5,0-1,0.1-1.2,0.3c-0.2,0.1-0.2,0.3-0.2,1L53.4,130.9L53.4,130.9z"/>
				<path class="st1" d="M62.4,131.3c0,1.3,0,1.5,0.7,1.6l0.4,0.1c0.1,0.1,0.1,0.4,0,0.4c-0.6,0-1.1-0.1-1.7-0.1s-1.2,0-1.7,0.1
					c-0.1-0.1-0.2-0.4,0-0.4l0.4-0.1c0.7-0.1,0.7-0.3,0.7-1.6v-8.1c0-1.1,0-1.2-0.6-1.5l-0.2-0.1c-0.1-0.1-0.1-0.3,0-0.4
					c0.4-0.1,1.3-0.4,1.9-0.8c0.1,0,0.1,0,0.2,0.1c0,0.5-0.1,1.4-0.1,2.2C62.4,122.7,62.4,131.3,62.4,131.3z"/>
				<path class="st1" d="M65.5,128.2c0-0.7,0-0.8-0.5-1.1l-0.2-0.1c-0.1-0.1-0.1-0.3,0-0.3c0.4-0.1,1.4-0.6,1.8-0.9
					c0.1,0,0.2,0,0.2,0.1c0,0.6-0.1,1.5-0.1,2.2v3.2c0,1.3,0,1.5,0.7,1.6l0.4,0.1c0.1,0.1,0.1,0.4,0,0.4c-0.5,0-1.1-0.1-1.7-0.1
					s-1.2,0-1.7,0.1c-0.1-0.1-0.2-0.4,0-0.4l0.4-0.1c0.7-0.1,0.7-0.3,0.7-1.6C65.5,131.3,65.5,128.2,65.5,128.2z M67,123.1
					c0,0.6-0.4,0.9-0.9,0.9c-0.6,0-0.9-0.4-0.9-0.9c0-0.6,0.4-1,1-1C66.6,122.2,67,122.6,67,123.1"/>
				<path class="st1" d="M74.7,126.3c0.1,0.1,0.3,0.4,0.3,0.7s-0.2,0.7-0.4,0.7c-0.1,0-0.2,0-0.3-0.1c-0.4-0.5-1.1-0.9-1.8-0.9
					c-1.3,0-2.5,1-2.5,2.9c0,1.4,1,3.1,2.9,3.1c1,0,1.6-0.5,2-1.1c0.1,0,0.3,0.1,0.3,0.3c-0.6,1.3-2,1.8-3,1.8s-1.8-0.3-2.5-0.9
					c-0.6-0.6-1-1.5-1-2.7c0-1.9,1.4-4,4.3-4C73.6,126,74.3,126.1,74.7,126.3"/>
				<path class="st1" d="M83.5,133.6c-1.5,0-2.5-0.5-2.8-0.7c-0.2-0.4-0.4-1.7-0.5-2.5c0.1-0.1,0.4-0.2,0.4-0.1
					c0.3,0.9,1,2.7,3.1,2.7c1.5,0,2.2-1,2.2-2.1c0-0.8-0.2-1.7-1.5-2.5l-1.7-1.1c-0.9-0.6-1.9-1.6-1.9-3.1c0-1.7,1.3-3.1,3.7-3.1
					c0.6,0,1.2,0.1,1.7,0.2c0.2,0.1,0.5,0.1,0.6,0.1c0.2,0.4,0.3,1.4,0.3,2.2c-0.1,0.1-0.4,0.2-0.4,0.1c-0.2-0.9-0.7-2-2.4-2
					c-1.8,0-2.1,1.2-2.1,2c0,1,0.9,1.8,1.5,2.2l1.4,0.9c1.1,0.7,2.2,1.7,2.2,3.4C87.3,132.3,85.8,133.6,83.5,133.6"/>
				<path class="st1" d="M90.1,128.8c-0.5,0-0.5,0-0.5,0.5c0,1.8,1.1,3.3,3,3.3c0.6,0,1.1-0.2,1.6-0.9c0.2-0.1,0.3,0.1,0.3,0.2
					c-0.6,1.2-1.9,1.7-2.8,1.7c-1.2,0-2.1-0.5-2.6-1.2s-0.8-1.5-0.8-2.3c0-2.2,1.4-4,3.6-4c1.5,0,2.5,1.1,2.5,2.1
					c0,0.2,0,0.4-0.1,0.5s-0.3,0.1-1.1,0.1L90.1,128.8L90.1,128.8z M91.2,128.2c1.3,0,1.7-0.1,1.9-0.2c0.1,0,0.1-0.1,0.1-0.3
					c0-0.5-0.3-1.1-1.4-1.1c-1.1,0-2,1-2,1.6c0,0,0,0.1,0.1,0.1h1.3V128.2z"/>
				<path class="st1" d="M96.5,128.2c0-0.7,0-0.8-0.5-1.1l-0.2-0.1c-0.1-0.1-0.1-0.3,0-0.3c0.4-0.1,1.4-0.6,1.8-0.9
					c0.1,0,0.1,0.1,0.1,0.1v1c0,0.1,0,0.1,0.1,0.2c0.6-0.5,1.3-1.1,2-1.1c0.4,0,0.8,0.3,0.8,0.7c0,0.6-0.5,0.8-0.8,0.8
					c-0.2,0-0.3-0.1-0.4-0.1c-0.3-0.2-0.5-0.3-0.8-0.3s-0.5,0.2-0.6,0.4c-0.2,0.3-0.2,0.8-0.2,1.4v2.4c0,1.3,0,1.5,0.7,1.6l0.6,0.1
					c0.1,0.1,0.1,0.4,0,0.4c-0.8,0-1.4-0.1-2-0.1s-1.2,0-1.6,0.1c-0.1-0.1-0.2-0.4,0-0.4l0.3-0.1c0.7-0.1,0.7-0.3,0.7-1.6
					L96.5,128.2L96.5,128.2z"/>
				<path class="st1" d="M102.3,128.1c-0.3-0.7-0.4-1.2-1.1-1.3l-0.4-0.1c-0.1-0.1-0.1-0.4,0.1-0.4c0.4,0,1.1,0.1,1.7,0.1
					c0.5,0,0.8,0,1.5-0.1c0.1,0.1,0.1,0.4,0,0.4h-0.2c-0.6,0.1-0.6,0.2-0.4,0.7c0.4,1.2,0.9,2.5,1.3,3.4c0.2,0.4,0.2,0.5,0.3,0.6
					c0.1-0.1,0.2-0.3,0.3-0.7c0.2-0.6,0.8-2.2,1-2.6c0.2-0.6,0.3-1,0.3-1.1c0-0.2-0.1-0.2-0.3-0.3l-0.4-0.1c-0.1-0.1-0.1-0.4,0-0.4
					c0.6,0,1,0.1,1.3,0.1c0.4,0,0.8,0,1.3-0.1c0.1,0.1,0.1,0.3,0,0.4h-0.3c-0.6,0.1-0.8,0.6-1.3,1.6c-0.3,0.5-1.4,3.1-1.6,3.8
					c-0.2,0.4-0.4,0.9-0.6,1.5c0,0.1-0.1,0.1-0.2,0.1c-0.1,0-0.2,0-0.2-0.1c-0.1-0.5-0.4-1.2-0.7-1.9L102.3,128.1z"/>
				<path class="st1" d="M110.1,128.2c0-0.7,0-0.8-0.5-1.1l-0.2-0.1c-0.1-0.1-0.1-0.3,0-0.3c0.4-0.1,1.4-0.6,1.8-0.9
					c0.1,0,0.2,0,0.2,0.1c0,0.6-0.1,1.5-0.1,2.2v3.2c0,1.3,0,1.5,0.7,1.6l0.4,0.1c0.1,0.1,0.1,0.4,0,0.4c-0.5,0-1.1-0.1-1.7-0.1
					c-0.6,0-1.2,0-1.7,0.1c-0.1-0.1-0.2-0.4,0-0.4l0.4-0.1c0.7-0.1,0.7-0.3,0.7-1.6L110.1,128.2L110.1,128.2z M111.6,123.1
					c0,0.6-0.4,0.9-0.9,0.9c-0.6,0-0.9-0.4-0.9-0.9c0-0.6,0.4-1,1-1C111.2,122.2,111.6,122.6,111.6,123.1"/>
				<path class="st1" d="M119.4,126.3c0.1,0.1,0.3,0.4,0.3,0.7s-0.2,0.7-0.4,0.7c-0.1,0-0.2,0-0.2-0.1c-0.4-0.5-1.1-0.9-1.8-0.9
					c-1.3,0-2.5,1-2.5,2.9c0,1.4,1,3.1,2.9,3.1c1,0,1.6-0.5,2-1.1c0.1,0,0.3,0.1,0.3,0.3c-0.6,1.3-2,1.8-3,1.8
					c-0.9,0-1.8-0.3-2.5-0.9c-0.6-0.6-1-1.5-1-2.7c0-1.9,1.4-4,4.3-4C118.2,126,118.9,126.1,119.4,126.3"/>
				<path class="st1" d="M122.1,128.8c-0.5,0-0.5,0-0.5,0.5c0,1.8,1.1,3.3,3,3.3c0.6,0,1.1-0.2,1.6-0.9c0.2-0.1,0.3,0.1,0.3,0.2
					c-0.6,1.2-1.9,1.7-2.8,1.7c-1.2,0-2.1-0.5-2.6-1.2s-0.8-1.5-0.8-2.3c0-2.2,1.5-4,3.6-4c1.5,0,2.5,1.1,2.5,2.1
					c0,0.2,0,0.4-0.1,0.5s-0.3,0.1-1.1,0.1L122.1,128.8L122.1,128.8z M123.2,128.2c1.3,0,1.7-0.1,1.9-0.2c0.1,0,0.1-0.1,0.1-0.3
					c0-0.5-0.3-1.1-1.4-1.1c-1.1,0-2,1-2,1.6c0,0,0,0.1,0.1,0.1h1.3V128.2z"/>
			</g>
		</g>
		<g>
			<path class="st1" d="M243.8,91.4c0-4.2-0.1-4.6-2.2-5.9l-0.7-0.4c-0.4-0.2-0.4-1.2,0-1.4c1.8-0.6,5.1-1.6,7.7-3
				c0.3,0,0.6,0.1,0.7,0.4c-0.1,2.1-0.2,5.7-0.2,8.9v15c0,0.6,0.1,1.2,0.3,1.4c2.6-2,6-3.7,9.6-3.7c6.8,0,9.2,4.2,9.2,9.2v11.9
				c0,5.1,0.1,5.9,2.7,6.2l1.9,0.2c0.5,0.4,0.4,1.6-0.1,1.8c-2.6-0.1-4.6-0.2-7.1-0.2c-2.6,0-4.7,0.1-6.6,0.2
				c-0.5-0.2-0.6-1.4-0.1-1.8l1.4-0.2c2.6-0.4,2.7-1.1,2.7-6.2v-10.2c0-4.6-2.2-7.6-6.8-7.6c-2.4,0-4.3,0.9-5.6,1.9
				c-1.3,1.1-1.5,1.4-1.5,3.9v12c0,5.1,0.1,5.9,2.7,6.2l1.5,0.2c0.5,0.3,0.4,1.6-0.1,1.8c-2.1-0.1-4.2-0.2-6.7-0.2
				c-2.6,0-4.7,0.1-7,0.2c-0.5-0.2-0.6-1.4-0.1-1.8l1.8-0.2c2.6-0.3,2.7-1.1,2.7-6.2L243.8,91.4L243.8,91.4z"/>
			<path class="st1" d="M280.1,113.4c-1.9,0-1.9,0.1-1.9,1.9c0,7.2,4.2,13.4,11.9,13.4c2.4,0,4.4-0.7,6.6-3.5
				c0.7-0.2,1.2,0.2,1.3,0.9c-2.4,4.9-7.5,6.6-11.2,6.6c-4.6,0-8.3-2-10.4-4.7c-2.1-2.8-3-6.1-3-9.3c0-8.8,5.8-16.1,14.4-16.1
				c6.1,0,10.1,4.2,10.1,8.5c0,1-0.1,1.6-0.3,1.9c-0.2,0.4-1.2,0.5-4.2,0.5L280.1,113.4L280.1,113.4z M284.5,111.2
				c5.3,0,6.9-0.3,7.4-0.7c0.2-0.1,0.4-0.4,0.4-1.4c0-2-1.4-4.5-5.5-4.5c-4.2,0-7.9,3.9-7.9,6.2c0,0.1,0,0.4,0.5,0.4H284.5z"/>
			<path class="st1" d="M304.3,111.1c0-2.8,0-3.1-1.9-4.4l-0.6-0.4c-0.3-0.3-0.3-1.1,0.1-1.3c1.6-0.6,5.4-2.4,7.2-3.5
				c0.4,0.1,0.6,0.2,0.6,0.5v4.1c0,0.4,0.1,0.6,0.2,0.6c2.5-2.1,5.2-4.3,7.9-4.3c1.8,0,3.2,1.1,3.2,2.9c0,2.4-1.9,3.3-3.1,3.3
				c-0.7,0-1.1-0.2-1.6-0.5c-1.1-0.7-2.1-1.1-3.1-1.1c-1.1,0-2,0.6-2.6,1.4c-0.7,1-0.9,3.1-0.9,5.5v9.7c0,5.1,0.1,6,2.9,6.2l2.6,0.2
				c0.5,0.4,0.4,1.6-0.1,1.8c-3.4-0.1-5.4-0.2-7.9-0.2c-2.6,0-4.7,0.1-6.6,0.2c-0.5-0.2-0.6-1.4-0.1-1.8l1.4-0.2
				c2.6-0.4,2.7-1.1,2.7-6.2v-12.5H304.3z"/>
			<path class="st1" d="M327.8,113.4c-1.9,0-1.9,0.1-1.9,1.9c0,7.2,4.2,13.4,11.9,13.4c2.4,0,4.4-0.7,6.6-3.5
				c0.7-0.2,1.2,0.2,1.3,0.9c-2.4,4.9-7.5,6.6-11.2,6.6c-4.6,0-8.3-2-10.4-4.7c-2.1-2.8-3-6.1-3-9.3c0-8.8,5.8-16.1,14.4-16.1
				c6.1,0,10.1,4.2,10.1,8.5c0,1-0.1,1.6-0.3,1.9c-0.2,0.4-1.2,0.5-4.2,0.5L327.8,113.4L327.8,113.4z M332.2,111.2
				c5.3,0,6.9-0.3,7.4-0.7c0.2-0.1,0.4-0.4,0.4-1.4c0-2-1.4-4.5-5.5-4.5c-4.2,0-7.9,3.9-7.9,6.2c0,0.1,0,0.4,0.5,0.4H332.2z"/>
			<path class="st1" d="M364.2,111.1c0-2.8,0-3.1-1.9-4.4l-0.6-0.4c-0.3-0.3-0.3-1.1,0.1-1.3c1.6-0.6,5.7-2.4,7.4-3.5
				c0.4,0,0.6,0.1,0.7,0.4c-0.1,2.5-0.3,5.9-0.3,8.9v12.9c0,5.1,0.1,5.9,2.7,6.2l1.5,0.2c0.5,0.4,0.4,1.6-0.1,1.8
				c-2.1-0.1-4.2-0.2-6.7-0.2c-2.6,0-4.7,0.1-6.7,0.2c-0.5-0.2-0.6-1.4-0.1-1.8l1.5-0.2c2.6-0.4,2.7-1.1,2.7-6.2v-12.6H364.2z
				 M370.1,90.8c0,2.6-1.8,3.7-3.8,3.7c-2.2,0-3.6-1.6-3.6-3.6c0-2.4,1.7-3.9,3.9-3.9C368.7,87.1,370.1,88.8,370.1,90.8z"/>
			<path class="st1" d="M403.1,121.2c0,5.6,0.1,8.3,2.1,8.3c0.8,0,2-0.4,3.1-0.7c0.5,0.1,0.6,1.9-0.1,2.3c-3,0.4-7.4,1.5-9.4,2.3
				c-0.4,0-0.8-0.2-0.8-0.6v-1.2c0-1.1,0-1.9-0.1-2.2h-0.3c-3.1,2.1-5.6,3.3-9,3.3c-7.9,0-13.2-6.2-13.2-13.7
				c0-10,7.6-16.4,17.3-16.4c2.4,0,4,0.4,4.8,0.6c0.4,0,0.4-0.4,0.4-1V91.5c0-4.2-0.1-4.6-2.2-5.9l-0.7-0.4c-0.4-0.2-0.4-1.2,0-1.4
				c1.8-0.6,5.1-1.6,7.7-3c0.3,0,0.6,0.1,0.7,0.4c-0.1,2.1-0.2,5.7-0.2,8.9L403.1,121.2L403.1,121.2z M397.8,110.5
				c0-1.4-0.3-2.1-0.8-2.8c-1.1-1.5-3.2-3-6-3c-6.5,0-9.9,5.6-9.9,11.9c0,6.5,3.6,12.6,10.6,12.6c1.9,0,4.4-0.9,5.5-2
				c0.4-0.4,0.5-1.5,0.5-2.6L397.8,110.5L397.8,110.5z"/>
			<path class="st1" d="M415.9,113.4c-1.9,0-1.9,0.1-1.9,1.9c0,7.2,4.2,13.4,11.9,13.4c2.4,0,4.4-0.7,6.6-3.5
				c0.7-0.2,1.2,0.2,1.3,0.9c-2.4,4.9-7.5,6.6-11.2,6.6c-4.6,0-8.3-2-10.4-4.7c-2.1-2.8-3-6.1-3-9.3c0-8.8,5.8-16.1,14.4-16.1
				c6.1,0,10.1,4.2,10.1,8.5c0,1-0.1,1.6-0.3,1.9c-0.2,0.4-1.2,0.5-4.2,0.5L415.9,113.4L415.9,113.4z M420.3,111.2
				c5.3,0,6.9-0.3,7.4-0.7c0.2-0.1,0.4-0.4,0.4-1.4c0-2-1.4-4.5-5.5-4.5c-4.2,0-7.9,3.9-7.9,6.2c0,0.1,0,0.4,0.5,0.4H420.3z"/>
			<path class="st1" d="M450,116.9c1.1-0.4,1.2-1,1.2-2.1l0.1-3.3c0.1-2.6-0.8-6.2-5.2-6.2c-2,0-4.4,1-4.6,3.2
				c-0.1,1.1-0.1,2-0.7,2.4c-1.1,0.9-3,1.4-4.1,1.4c-0.6,0-1-0.4-1-1c0-3.7,8.1-8.8,13.3-8.8c5.1,0,7.6,3,7.4,8.4l-0.4,12.4
				c-0.1,3.3,0.5,6.2,3.3,6.2c0.7,0,1.4-0.2,1.8-0.4c0.4-0.2,0.7-0.5,0.9-0.5c0.3,0,0.5,0.4,0.5,0.9c0,0.4-2.5,3.1-6,3.1
				c-1.7,0-3.4-0.6-4.6-2.2c-0.3-0.4-0.7-1-1.1-1c-0.5,0-1.4,0.6-2.8,1.4c-1.6,0.9-3.1,1.8-5.1,1.8c-2.1,0-3.8-0.6-5-1.6
				c-1.4-1.2-2.2-3-2.2-5c0-2.8,1.4-4.4,5.9-6.1L450,116.9z M445.6,129.4c1.4,0,3.6-1.1,4.4-1.8c0.9-0.9,0.9-1.9,0.9-3.4l0.1-4.2
				c0-0.8-0.3-0.9-0.7-0.9c-0.4,0-1.6,0.3-2.9,0.7c-4.2,1.4-6.3,2.5-6.3,5.3C441.1,126.4,442,129.4,445.6,129.4z"/>
			<path class="st1" d="M481.2,103.8c0.6,1.6,1.1,3.9,1.1,5.8c-0.3,0.5-1.4,0.6-1.7,0.2c-1.2-3.1-3.4-5.2-6.3-5.2
				c-2.8,0-4.6,1.8-4.6,4.4c0,2.9,3,4.5,5.5,5.9c3.8,2.1,7.3,4.6,7.3,9.6c0,5.4-5,8.1-10.3,8.1c-3.4,0-5.9-0.7-7.6-2.1
				c-0.6-1.4-1-4.9-0.9-7.2c0.4-0.4,1.3-0.5,1.6-0.1c1.2,3.9,3.5,7.4,7.6,7.4c2.6,0,4.8-1.5,4.8-4.6c0-3.3-2.9-5.1-5.5-6.6
				c-4.1-2.4-7.1-4.9-7.1-8.8c0-5.2,4.3-8.1,9.7-8.1C477.9,102.5,480.6,103.2,481.2,103.8z"/>
			<path class="st1" d="M501.5,110.4c-1.6-4-2.5-4.7-4.3-5.1l-1.1-0.3c-0.4-0.4-0.4-1.4,0.2-1.7c2.2,0.1,4.2,0.2,6.4,0.2
				s4.3-0.1,6.2-0.2c0.6,0.3,0.6,1.4,0.1,1.7l-1.6,0.3c-1,0.1-1.6,0.6-1.6,1s0.4,1.8,1.1,3.7l4.4,10.9c0.6,1.6,1.3,2.9,1.3,3.1
				c0.2-0.1,0.8-1.4,1.6-3.4l3.5-8.6c0.9-2.3,1-3.2,0.6-4.1c-0.6-1.6-1.7-2.1-3.3-2.5l-1.1-0.3c-0.5-0.4-0.4-1.5,0.2-1.7
				c1.8,0.1,4.1,0.2,5.9,0.2c2.2,0,4.4-0.1,6.8-0.2c0.6,0.2,0.6,1.4,0.2,1.7l-1.5,0.3c-2.9,0.6-2.7,0.8-1.9,3.3
				c0.8,2.4,4.6,11.4,5.4,13.4c0.4,1.1,0.7,1.9,0.9,2c0.1-0.1,0.5-0.9,1-2c0.9-2.1,3.8-9.6,4.9-12.6c0.6-1.6,0.7-2.6,0.7-3.1
				c0-0.4-0.4-0.8-1.3-0.9l-1.8-0.3c-0.6-0.4-0.4-1.5,0.1-1.7c2.1,0.1,3.9,0.2,5.6,0.2c1.4,0,3.1-0.1,4.6-0.2
				c0.6,0.3,0.6,1.4,0.2,1.7l-1.4,0.3c-1.7,0.4-2.4,1.4-3.9,4.5c-1.9,4-5.4,12.6-6.7,16.2c-1,2.6-1.9,4.6-2.4,6.5
				c-0.3,0.2-0.6,0.3-0.9,0.3s-0.6-0.1-0.8-0.3c-0.4-1.3-1.7-5-2.9-7.9l-3.4-8.2c-0.5-1.3-1.6-3.6-1.6-3.6c-0.1,0-1.1,2.2-1.6,3.5
				l-3.7,8.9c-1.3,3.1-2.3,5.6-2.9,7.3c-0.2,0.2-0.5,0.3-0.9,0.3c-0.3,0-0.6-0.1-0.9-0.3c-0.4-1.5-1.6-4.4-2.1-5.9L501.5,110.4z"/>
			<path class="st1" d="M572,117.3c0,8.9-6.1,15.4-15.1,15.4c-8.2,0-14.6-5.8-14.6-14.7c0-9,6.8-15.4,15.2-15.4
				C565.5,102.5,572,108.5,572,117.3z M556.6,104.6c-4.7,0-8.2,4.5-8.2,12.4c0,6.5,2.9,13.5,9.2,13.5c6.3,0,8.2-6.6,8.2-12.1
				C565.8,112.4,563.4,104.6,556.6,104.6z"/>
			<path class="st1" d="M578,111.1c0-2.8,0-3.1-1.9-4.4l-0.6-0.4c-0.3-0.3-0.3-1.1,0.1-1.3c1.6-0.6,5.4-2.4,7.2-3.5
				c0.4,0.1,0.6,0.2,0.6,0.5v4.1c0,0.4,0.1,0.6,0.2,0.6c2.5-2.1,5.2-4.3,7.9-4.3c1.8,0,3.2,1.1,3.2,2.9c0,2.4-1.9,3.3-3.1,3.3
				c-0.7,0-1.1-0.2-1.6-0.5c-1.1-0.7-2.1-1.1-3.1-1.1c-1.1,0-2,0.6-2.6,1.4c-0.7,1-0.9,3.1-0.9,5.5v9.7c0,5.1,0.1,6,2.9,6.2l2.6,0.2
				c0.5,0.4,0.4,1.6-0.1,1.8c-3.4-0.1-5.4-0.2-7.9-0.2c-2.6,0-4.7,0.1-6.6,0.2c-0.5-0.2-0.6-1.4-0.1-1.8l1.4-0.2
				c2.6-0.4,2.7-1.1,2.7-6.2v-12.5H578z"/>
			<path class="st1" d="M598.7,91.4c0-4.2-0.1-4.6-2.2-5.9l-0.7-0.4c-0.4-0.2-0.4-1.2,0-1.4c1.8-0.6,5.1-1.6,7.7-3
				c0.3,0,0.6,0.1,0.7,0.4c-0.1,2.1-0.2,5.7-0.2,8.9v24.5c0,0.9,0.1,1.1,1.3,1.1c1.6,0,2.9-0.8,4.9-2.8l2.9-3.1
				c2-2.1,2.5-2.9,2.5-3.3c0-0.4-0.4-0.6-1.6-0.7l-1.7-0.2c-0.6-0.2-0.6-1.6,0-1.8h1.6c3.1,0,7.4-0.1,11.4-0.6
				c0.5,0.2,0.6,1.4,0.1,1.8l-2.3,0.4c-1.4,0.3-2.6,1-4.5,2.5c-2.8,2.2-5.2,4.8-6.5,6c-0.9,0.8-0.9,1.1-0.5,1.7
				c1.2,1.6,2.4,3,4.8,5.7c2.8,3.1,5.3,5.9,6.7,7.3c1,0.9,2.4,1.4,3.7,1.6l1,0.1c0.5,0.4,0.4,1.6-0.1,1.8c-2.1-0.1-4.5-0.2-6.8-0.2
				c-2.9,0-5.4,0.1-7.4,0.2c-0.6-0.3-0.6-1.5-0.1-1.8l1.3-0.2c1.1-0.1,1.8-0.3,1.8-0.7s-0.3-0.9-1.2-2l-7.6-8.9
				c-0.6-0.7-1.4-1-2.2-1c-1.3,0-1.4,0.2-1.4,2.4v3.9c0,5.1,0.1,5.9,2.7,6.2l1.7,0.2c0.5,0.4,0.4,1.6-0.1,1.8
				c-2.4-0.1-4.4-0.2-6.9-0.2c-2.6,0-4.7,0.1-6.9,0.2c-0.5-0.2-0.6-1.4-0.1-1.8l1.6-0.2c2.6-0.4,2.7-1.1,2.7-6.2L598.7,91.4
				L598.7,91.4z"/>
		</g>
	</g>
	<path class="st1" d="M238.7,83.8c-1.7,0.1-3.6,0.2-6.1,0.2c-2,0-3.8-0.1-6.3-0.2c-0.5,0.3-0.6,1.1-0.1,1.7l1.9,0.1
		c1.4,0.1,2.2,0.6,2.2,1.6c0,0.4-0.2,1.3-0.5,2.3l0,0c0,0.2-0.1,0.3-0.1,0.5c0,0,0,0,0,0.1l0,0c-1.4,4.7-0.8,2.8-1.9,6.4
		c-2,6.5-6,18.8-7.6,23.5c-0.3,0.9-0.4,1.1-0.9,0.1c-1.9-4.9-7.6-20.8-9.4-26.6c-0.3-1.1-1.2-3.9-1.3-4.1c-1.1-3.3-0.7-3.5,1.9-3.8
		l1.7-0.1c0.4-0.6,0.3-1.5-0.1-1.7c-1.5,0.1-4.6,0.2-7.9,0.2c-2.6,0-4.8-0.1-6.7-0.2c-0.5,0.3-0.6,1.1-0.1,1.7l1.6,0.1
		c2.2,0.2,3.2,1.7,4.2,3.9c0.5,1.2,0.8,2.1,1.3,3.7c0.3,0.9,0.4,1.3-0.3,3.3c-5.2,15-5.9,17.2-8.2,23.6c-0.3,0.9-0.5,0.5-0.9-0.5
		c-2.4-6.4-8.6-24.9-9.5-27.8c-0.4-1.2-0.9-3-0.9-3c-0.3-1-0.5-1.6-0.5-1.9c0-0.6,0.8-1.1,2.2-1.2l1.5-0.1c0.4-0.5,0.5-1.5-0.1-1.7
		c-2.3,0.1-6.4,0.2-8.2,0.2c-2,0-5-0.1-6.8-0.2c-0.5,0.3-0.6,1.3-0.2,1.7l1.6,0.1c2.2,0.2,3.1,1.4,4,3.4l0.1,0.2
		c1.4,3.2,2.4,5.6,3.8,9.9c1.4,4.1,10.7,32.1,10.9,32.6c0.3,0.2,0.6,0.2,1,0.2c0.3,0,0.6-0.1,0.8-0.2c0.4-1.2,1.5-4.3,1.7-4.7
		c3.2-9.4,8.3-24.3,9.1-26.5c0.4-1,0.6-0.9,1,0.2c2,5.9,6.7,18.7,9.4,27.5l0,0c0,0.2,0.9,3,1.1,3.5c0.3,0.2,1,0.2,1.4,0.2
		s0.7-0.1,0.9-0.2c0.2-0.5,3-9.6,3.6-11.4c3-8.4,8-23.6,9.2-27.4c0.3-1.1,0.7-2.1,1-2.9c1.4-3.1,2.5-4,4.6-4.3l1.3-0.1
		C239.3,84.9,239.3,84,238.7,83.8z"/>
</g>
<g>
	<g>
		<g>
			<path class="st2" d="M66.2,49.7C66.2,49.8,66.3,49.8,66.2,49.7c0.2,0.1,0.2,0,0.2,0C66.4,49.6,66.3,49.6,66.2,49.7
				C66.3,49.5,66.2,49.6,66.2,49.7z"/>
			<path class="st1" d="M20.7,72.9c0-2-0.1-2.5-1.5-2.6l-0.9-0.1c-0.1-0.1-0.1-0.6,0-0.7c1.6-0.1,3.6-0.2,6.3-0.2
				c1.8,0,3.6,0.1,4.9,0.7s2.2,1.6,2.2,3.3c0,1.9-1.2,2.9-3,3.6c0,0.3,0.2,0.3,0.6,0.4c1.6,0.3,3.9,1.6,3.9,4.4
				c0,3.1-2.5,5.1-7.8,5.1c-0.8,0-2.3-0.1-3.5-0.1c-1.3,0-2.3,0.1-3.4,0.1c-0.2-0.1-0.2-0.5-0.1-0.7l0.5-0.1
				c1.6-0.2,1.6-0.5,1.6-3.3v-9.8H20.7z M23.1,76.4c0,0.7,0,0.8,1.5,0.7c3-0.1,4.6-0.9,4.6-3.4c0-2.6-2.1-3.6-4.4-3.6
				c-0.6,0-1.1,0.1-1.3,0.2c-0.3,0.1-0.4,0.2-0.4,0.7C23.1,71,23.1,76.4,23.1,76.4z M23.1,82.5c0,0.9,0.1,2.3,0.6,2.9
				c0.6,0.6,1.4,0.7,2.3,0.7c2.6,0,4.6-1.1,4.6-3.7c0-2.1-1.2-4.5-5.8-4.5c-1.6,0-1.7,0.2-1.7,0.7V82.5z"/>
			<path class="st1" d="M53.6,75.5c0-2.4-0.1-2.8-1.5-2.9h-0.6c-0.2-0.1-0.1-0.5,0-0.6c1.3,0,2.1,0.1,3.2,0.1c1,0,1.9,0,3.1-0.1
				c0.2,0.1,0.2,0.5,0.1,0.6h-0.6c-1.5,0.1-1.5,0.5-1.5,2.9v8c0,2.4,0,2.7,1.5,2.9l0.6,0.1c0.1,0.1,0.1,0.5-0.1,0.6
				c-1.3,0-2.1-0.1-3.1-0.1c-1.1,0-1.9,0-3.2,0.1c-0.1-0.1-0.2-0.4,0-0.6l0.6-0.1c1.5-0.2,1.5-0.5,1.5-2.9V75.5z"/>
			<path class="st1" d="M67.5,83.5c0,2.4,0,2.7,1.4,2.8l0.8,0.1c0.1,0.1,0.1,0.5,0,0.6c-1.3,0-2.1-0.1-3.1-0.1c-0.9,0-1.8,0-3.3,0.1
				c-0.1-0.1-0.2-0.5,0-0.6l0.8-0.1c1.3-0.1,1.5-0.5,1.5-2.8V73.4c0-0.7,0-0.7-0.7-0.7h-1.3c-1,0-2.3,0-2.9,0.6
				c-0.6,0.5-0.8,1-1.1,1.6c-0.2,0.1-0.5,0-0.6-0.2c0.4-1,0.7-2.5,0.9-3.4c0.1,0,0.4-0.1,0.4,0c0.1,0.7,0.9,0.7,2,0.7h9.5
				c1.3,0,1.5,0,1.8-0.6c0.1,0,0.4,0,0.4,0.1c-0.3,0.9-0.4,2.8-0.4,3.4c-0.1,0.2-0.5,0.2-0.6,0c-0.1-0.6-0.2-1.4-0.6-1.6
				c-0.5-0.4-1.4-0.6-2.7-0.6H68c-0.7,0-0.7,0-0.7,0.8v10H67.5z"/>
			<path class="st1" d="M77.5,75.5c0-2.4,0-2.8-1.5-2.9h-0.6c-0.2-0.1-0.1-0.5,0-0.6c1.3,0,2.1,0.1,3.2,0.1c1,0,1.9,0,3.1-0.1
				c0.2,0.1,0.2,0.5,0.1,0.6h-0.6c-1.5,0.1-1.5,0.5-1.5,2.9v8c0,2.4,0,2.7,1.5,2.9l0.6,0.1c0.1,0.1,0.1,0.5-0.1,0.6
				c-1.2,0-2.1-0.1-3.1-0.1c-1.1,0-1.9,0-3.2,0.1c-0.1-0.1-0.2-0.4,0-0.6l0.6-0.1c1.5-0.2,1.5-0.5,1.5-2.9V75.5z"/>
			<path class="st1" d="M88.7,87.2c-2.2,0-3.6-0.6-4.1-0.8c-0.3-0.5-0.7-2.1-0.7-3.2c0.1-0.2,0.5-0.2,0.6-0.1
				c0.4,1.2,1.5,3.4,4.6,3.4c2.2,0,3.3-1.2,3.3-2.6c0-1-0.2-2.1-2.2-3.2l-2.5-1.4c-1.3-0.7-2.9-2-2.9-3.9c0-2.1,2-3.9,5.4-3.9
				c0.8,0,1.8,0.1,2.5,0.3c0.3,0.1,0.7,0.1,0.9,0.1c0.2,0.5,0.5,1.8,0.5,2.8c-0.1,0.1-0.5,0.2-0.7,0.1c-0.3-1.1-1.1-2.5-3.6-2.5
				c-2.6,0-3.2,1.5-3.2,2.5c0,1.3,1.3,2.3,2.3,2.8l2.1,1.1c1.7,0.9,3.3,2.2,3.3,4.3C94.4,85.5,92.2,87.2,88.7,87.2z"/>
			<path class="st1" d="M102.1,79.6c-1.2,0-1.2,0-1.2,0.7v3.2c0,2.4,0.1,2.7,1.5,2.8l0.7,0.1c0.1,0.1,0.1,0.5,0,0.6
				c-1.3,0-2.1-0.1-3.1-0.1s-1.9,0-2.8,0.1c-0.1-0.1-0.2-0.4,0-0.6l0.4-0.1c1.4-0.2,1.4-0.5,1.4-2.8v-8.1c0-2.4-0.2-2.8-1.4-2.8H97
				c-0.1-0.1-0.1-0.5,0-0.6c1.2,0,2,0.1,3.1,0.1c0.9,0,1.8,0,2.8-0.1c0.1,0.1,0.2,0.5,0,0.6h-0.5c-1.4,0.1-1.5,0.5-1.5,2.8V78
				c0,0.7,0,0.7,1.2,0.7h6.9c1.2,0,1.2,0,1.2-0.7v-2.6c0-2.4,0-2.7-1.5-2.8h-0.5c-0.1-0.1-0.1-0.5,0-0.6c1.1,0,1.9,0.1,2.9,0.1
				c0.9,0,1.8,0,2.9-0.1c0.1,0.1,0.2,0.5,0,0.6h-0.5c-1.4,0.1-1.5,0.5-1.5,2.8v8.1c0,2.4,0,2.7,1.5,2.8l0.6,0.1
				c0.1,0.1,0.1,0.5,0,0.6c-1.2,0-2-0.1-2.9-0.1c-1,0-1.9,0-2.9,0.1c-0.1-0.1-0.2-0.4,0-0.6l0.5-0.1c1.5-0.2,1.5-0.5,1.5-2.8v-3.2
				c0-0.7,0-0.7-1.2-0.7H102.1z"/>
			<path class="st1" d="M6.8,91.9c2-1.5,4.5-2.3,7.4-2.3c1.5,0,3.6,0.3,4.8,0.7c0.3,0.1,0.5,0.1,0.8,0.1c0,0.6,0.2,2.3,0.4,4
				c-0.1,0.2-0.5,0.2-0.7,0.1c-0.4-1.8-1.6-4-5.6-4c-4.2,0-7.7,2.6-7.7,8.3s3.6,8.9,8.1,8.9c3.5,0,5.1-2.3,5.7-3.9
				c0.2-0.1,0.6-0.1,0.7,0.1c-0.2,1.4-0.9,3.2-1.3,3.7c-0.3,0.1-0.7,0.2-1,0.3c-0.6,0.2-2.6,0.6-4.3,0.6c-2.5,0-4.8-0.5-6.8-1.8
				c-2.2-1.5-3.9-4-3.9-7.5C3.3,96.1,4.7,93.5,6.8,91.9z"/>
			<path class="st1" d="M21.7,100.8c0-4.5,3.6-8,8.4-8c5.5,0,8.2,3.8,8.2,7.7c0,4.6-3.6,7.9-8.2,7.9
				C24.9,108.4,21.7,104.8,21.7,100.8z M36,101.2c0-3.7-1.7-7.7-6.2-7.7c-2.5,0-5.7,1.6-5.7,6.5c0,3.3,1.7,7.7,6.4,7.7
				C33.3,107.8,36,105.8,36,101.2z"/>
			<path class="st1" d="M65,98.8c0-1.4,0-4-0.5-4.7c-0.2-0.3-0.6-0.4-1.2-0.5h-0.6c-0.1-0.2-0.1-0.5,0-0.5c0.9,0,1.8,0.1,2.7,0.1
				c1,0,1.6,0,2.5-0.1c0.2,0.1,0.2,0.4,0,0.5h-0.6c-0.6,0-1.1,0.2-1.2,0.5c-0.3,0.7-0.3,3.3-0.3,4.6v2.5c0,2-0.3,4-1.7,5.4
				c-1,1.1-2.8,1.6-4.6,1.6c-1.6,0-3.3-0.3-4.5-1.2c-1.3-1-1.9-2.6-1.9-5.3v-5.3c0-2.3,0-2.7-1.4-2.8h-0.6c-0.1-0.1-0.1-0.5,0-0.5
				c1.2,0,2,0.1,3,0.1s1.8,0,2.9-0.1c0.1,0.1,0.2,0.5,0,0.5h-0.6C55,93.8,55,94.1,55,96.4v4.9c0,3.6,1.2,6,4.9,6
				c3.5,0,4.8-2.6,4.8-6v-2.5H65z"/>
			<path class="st1" d="M92.8,96c0-1.7-0.1-2.1-1.3-2.2l-0.8-0.1c-0.1-0.1-0.1-0.5,0-0.6c1.4-0.1,3.2-0.2,5.7-0.2
				c1.7,0,3.2,0.1,4.4,0.6c1.1,0.5,2,1.4,2,2.8c0,1.6-1.1,2.5-2.7,3.1c0,0.2,0.2,0.3,0.5,0.3c1.4,0.2,3.5,1.4,3.5,3.8
				c0,2.6-2.3,4.4-7,4.4c-0.8,0-2.1-0.1-3.2-0.1c-1.2,0-2.1,0-3,0.1c-0.2-0.1-0.2-0.4-0.1-0.6l0.5-0.1c1.4-0.2,1.5-0.5,1.5-2.8
				L92.8,96L92.8,96z M95,99c0,0.6,0,0.7,1.4,0.6c2.7-0.1,4.1-0.8,4.1-2.9c0-2.2-1.9-3.1-3.9-3.1c-0.6,0-1,0-1.2,0.1
				c-0.3,0.1-0.4,0.2-0.4,0.6L95,99L95,99z M95,104.3c0,0.8,0.1,2,0.6,2.5s1.3,0.6,2.1,0.6c2.4,0,4.1-0.9,4.1-3.2
				c0-1.8-1.1-3.9-5.3-3.9c-1.4,0-1.5,0.1-1.5,0.6L95,104.3L95,104.3z"/>
			<rect x="18.4" y="114.2" class="st3" width="95.9" height="1.1"/>
			
				<radialGradient id="SVGID_1_" cx="65.8" cy="168.9013" r="47.7052" gradientTransform="matrix(1 0 0 -1 0 216)" gradientUnits="userSpaceOnUse">
				<stop  offset="0" style="stop-color:#FFFFFF"/>
				<stop  offset="0.1322" style="stop-color:#FEFDFC"/>
				<stop  offset="0.2482" style="stop-color:#FDF8F1"/>
				<stop  offset="0.3581" style="stop-color:#FAF0DF"/>
				<stop  offset="0.4642" style="stop-color:#F5E3C6"/>
				<stop  offset="0.5667" style="stop-color:#F0D4A5"/>
				<stop  offset="0.6" style="stop-color:#EECE99"/>
				<stop  offset="0.6009" style="stop-color:#EECE98"/>
				<stop  offset="0.6498" style="stop-color:#EBC277"/>
				<stop  offset="0.7016" style="stop-color:#E8B95B"/>
				<stop  offset="0.7579" style="stop-color:#E6B146"/>
				<stop  offset="0.82" style="stop-color:#E4AC37"/>
				<stop  offset="0.8925" style="stop-color:#E3A92E"/>
				<stop  offset="1" style="stop-color:#E3A82B"/>
			</radialGradient>
			<path class="st4" d="M113.5,38.5c-5-21.6-24.4-37.7-47.6-37.7c-23.5,0-43.2,16.6-47.8,38.8l10.3-5.9l5.7,4c0,0,3.3-1.5,4-1.9
				l4.1,4.3c0,0,8.9,7.1,9.2,7.1c0.3,0,7.9-4.4,7.9-4.4l6.8-4.7l5.9,4.3l4.5,0.9l4.5,3.1c0,0,11-7.3,12.8-8.2c0,0,4.8,1.8,5.2,1.7
				c0.4-0.1,8-5.9,8-5.9L113.5,38.5z"/>
			
				<radialGradient id="SVGID_00000038398752806831552450000004861393282283041945_" cx="-3.5271" cy="166.2689" r="48.855" gradientTransform="matrix(0.9145 0 0 -1 69.2184 216)" gradientUnits="userSpaceOnUse">
				<stop  offset="0.53" style="stop-color:#FFFFFF"/>
				<stop  offset="0.6018" style="stop-color:#FBF4E9"/>
				<stop  offset="0.7509" style="stop-color:#F0D9B0"/>
				<stop  offset="0.77" style="stop-color:#EFD5A8"/>
				<stop  offset="0.8173" style="stop-color:#ECCC96"/>
				<stop  offset="0.88" style="stop-color:#E7BD77"/>
				<stop  offset="0.9234" style="stop-color:#E6B65B"/>
				<stop  offset="0.9708" style="stop-color:#E5B043"/>
				<stop  offset="1" style="stop-color:#E5AE3A"/>
			</radialGradient>
			<path style="fill:url(#SVGID_00000038398752806831552450000004861393282283041945_);" d="M66.4,24.7c0.5,0,1,0,1.4,0L69.5,1
				c-1.2-0.1-2.4-0.1-3.6-0.1c-0.8,0-1.6,0-2.4,0.1l1.2,23.8C65.3,24.7,65.9,24.7,66.4,24.7z"/>
			
				<radialGradient id="SVGID_00000105418456748486587660000007107081583557510041_" cx="-47.3517" cy="526.5486" r="48.9254" gradientTransform="matrix(0.8479 -0.3426 -0.3746 -0.9272 303.3878 521.7253)" gradientUnits="userSpaceOnUse">
				<stop  offset="0.53" style="stop-color:#FFFFFF"/>
				<stop  offset="0.6018" style="stop-color:#FBF4E9"/>
				<stop  offset="0.7509" style="stop-color:#F0D9B0"/>
				<stop  offset="0.77" style="stop-color:#EFD5A8"/>
				<stop  offset="0.8173" style="stop-color:#ECCC96"/>
				<stop  offset="0.88" style="stop-color:#E7BD77"/>
				<stop  offset="0.9234" style="stop-color:#E6B65B"/>
				<stop  offset="0.9708" style="stop-color:#E5B043"/>
				<stop  offset="1" style="stop-color:#E5AE3A"/>
			</radialGradient>
			<path style="fill:url(#SVGID_00000105418456748486587660000007107081583557510041_);" d="M58.3,26.1L51,3.2
				c-1.9,0.6-3.8,1.3-5.6,2.2l10.1,21.8C56.4,26.8,57.4,26.4,58.3,26.1z"/>
			
				<radialGradient id="SVGID_00000167358156531892063120000016115020584296967314_" cx="55.194" cy="866.8953" r="48.9332" gradientTransform="matrix(0.6578 -0.6352 -0.6947 -0.7193 631.9193 708.3486)" gradientUnits="userSpaceOnUse">
				<stop  offset="0.53" style="stop-color:#FFFFFF"/>
				<stop  offset="0.6018" style="stop-color:#FBF4E9"/>
				<stop  offset="0.7509" style="stop-color:#F0D9B0"/>
				<stop  offset="0.77" style="stop-color:#EFD5A8"/>
				<stop  offset="0.8173" style="stop-color:#ECCC96"/>
				<stop  offset="0.88" style="stop-color:#E7BD77"/>
				<stop  offset="0.9234" style="stop-color:#E6B65B"/>
				<stop  offset="0.9708" style="stop-color:#E5B043"/>
				<stop  offset="1" style="stop-color:#E5AE3A"/>
			</radialGradient>
			<path style="fill:url(#SVGID_00000167358156531892063120000016115020584296967314_);" d="M50.2,30.7L34.8,12.1
				c-1.5,1.3-3,2.7-4.4,4.1l17.7,16.6C48.7,32.1,49.5,31.4,50.2,30.7z"/>
			
				<radialGradient id="SVGID_00000124162391633035761270000012683573947013588874_" cx="65.9924" cy="166.2675" r="48.894" gradientTransform="matrix(1 0 0 -1 0 216)" gradientUnits="userSpaceOnUse">
				<stop  offset="0.53" style="stop-color:#FFFFFF"/>
				<stop  offset="0.6018" style="stop-color:#FBF4E9"/>
				<stop  offset="0.7509" style="stop-color:#F0D9B0"/>
				<stop  offset="0.77" style="stop-color:#EFD5A8"/>
				<stop  offset="0.8173" style="stop-color:#ECCC96"/>
				<stop  offset="0.88" style="stop-color:#E7BD77"/>
				<stop  offset="0.9234" style="stop-color:#E6B65B"/>
				<stop  offset="0.9708" style="stop-color:#E5B043"/>
				<stop  offset="1" style="stop-color:#E5AE3A"/>
			</radialGradient>
			<path style="fill:url(#SVGID_00000124162391633035761270000012683573947013588874_);" d="M44.5,37.8L23.1,26.3
				c-0.8,1.5-2,4-2.5,5.4l22.7,8.8C43.6,39.6,44,38.7,44.5,37.8z"/>
			
				<radialGradient id="SVGID_00000065032529570307681620000000559721866507473042_" cx="185.7012" cy="-155.8813" r="48.8841" gradientTransform="matrix(0.8479 0.3426 0.3746 -0.9272 -33.07 -158.4218)" gradientUnits="userSpaceOnUse">
				<stop  offset="0.53" style="stop-color:#FFFFFF"/>
				<stop  offset="0.6018" style="stop-color:#FBF4E9"/>
				<stop  offset="0.7509" style="stop-color:#F0D9B0"/>
				<stop  offset="0.77" style="stop-color:#EFD5A8"/>
				<stop  offset="0.8173" style="stop-color:#ECCC96"/>
				<stop  offset="0.88" style="stop-color:#E7BD77"/>
				<stop  offset="0.9234" style="stop-color:#E6B65B"/>
				<stop  offset="0.9708" style="stop-color:#E5B043"/>
				<stop  offset="1" style="stop-color:#E5AE3A"/>
			</radialGradient>
			<path style="fill:url(#SVGID_00000065032529570307681620000000559721866507473042_);" d="M77.2,27.1L87.6,5.9
				C85.8,5,84,4.2,82.1,3.6L74.3,26C75.3,26.3,76.2,26.7,77.2,27.1z"/>
			
				<radialGradient id="SVGID_00000128459011539957409530000008317902452453817003_" cx="497.0932" cy="-397.3975" r="48.7761" gradientTransform="matrix(0.6578 0.6352 0.6947 -0.7193 15.0752 -551.8674)" gradientUnits="userSpaceOnUse">
				<stop  offset="0.53" style="stop-color:#FFFFFF"/>
				<stop  offset="0.6018" style="stop-color:#FBF4E9"/>
				<stop  offset="0.7509" style="stop-color:#F0D9B0"/>
				<stop  offset="0.77" style="stop-color:#EFD5A8"/>
				<stop  offset="0.8173" style="stop-color:#ECCC96"/>
				<stop  offset="0.88" style="stop-color:#E7BD77"/>
				<stop  offset="0.9234" style="stop-color:#E6B65B"/>
				<stop  offset="0.9708" style="stop-color:#E5B043"/>
				<stop  offset="1" style="stop-color:#E5AE3A"/>
			</radialGradient>
			<path style="fill:url(#SVGID_00000128459011539957409530000008317902452453817003_);" d="M84.7,32.7L102.3,17
				c-1.3-1.5-2.7-2.9-4.2-4.2L82.6,30.5C83.2,31.2,84,31.9,84.7,32.7z"/>
			
				<radialGradient id="SVGID_00000168823405035764274230000013027484273794791094_" cx="883.2438" cy="-517.4311" r="48.7097" gradientTransform="matrix(0.3719 0.8354 0.9135 -0.4067 210.1888 -898.5692)" gradientUnits="userSpaceOnUse">
				<stop  offset="0.53" style="stop-color:#FFFFFF"/>
				<stop  offset="0.6018" style="stop-color:#FBF4E9"/>
				<stop  offset="0.7509" style="stop-color:#F0D9B0"/>
				<stop  offset="0.77" style="stop-color:#EFD5A8"/>
				<stop  offset="0.8173" style="stop-color:#ECCC96"/>
				<stop  offset="0.88" style="stop-color:#E7BD77"/>
				<stop  offset="0.9234" style="stop-color:#E6B65B"/>
				<stop  offset="0.9708" style="stop-color:#E5B043"/>
				<stop  offset="1" style="stop-color:#E5AE3A"/>
			</radialGradient>
			<path style="fill:url(#SVGID_00000168823405035764274230000013027484273794791094_);" d="M89.7,40.7l22.1-7.9
				c-0.7-1.9-1.5-3.7-2.4-5.4L88.4,38C88.9,38.8,89.3,39.8,89.7,40.7z"/>
			
				<radialGradient id="SVGID_00000085237330029425136550000007236280304492329130_" cx="65.8957" cy="166.2519" r="48.8639" gradientTransform="matrix(1 0 0 -1 0 216)" gradientUnits="userSpaceOnUse">
				<stop  offset="0.72" style="stop-color:#FFFFFF"/>
				<stop  offset="0.8064" style="stop-color:#FCF6ED"/>
				<stop  offset="0.98" style="stop-color:#F4E0BD"/>
				<stop  offset="1" style="stop-color:#F3DDB7"/>
			</radialGradient>
			<path style="fill:url(#SVGID_00000085237330029425136550000007236280304492329130_);" d="M59.4,42.8l6.8-4.7l5.9,4.3l4.5,0.9
				l4.5,3.1c0,0,5-3.3,8.8-5.7c-0.7-1.7-1.5-3.4-2.5-4.9L103.9,23L86.4,34.3c-1.6-2.1-3.5-3.9-5.6-5.3l10.3-17.7L79.3,28
				c-2.2-1.3-4.6-2.3-7.2-2.9l3-20.4l-4.7,20c-1.3-0.2-2.6-0.3-4-0.3s-2.8,0.1-4.2,0.4L57.5,4.7l3,20.4c-2.5,0.6-4.9,1.6-7.1,3
				L41.5,11.3l10.4,17.8c-2.1,1.5-3.9,3.3-5.5,5.3L28.7,23l16.6,12.9c-1,1.5-1.8,3.1-2.4,4.7c2.1,1.6,8.3,6.6,8.5,6.6
				C51.8,47.2,59.4,42.8,59.4,42.8z"/>
			<path class="st13" d="M113.4,38.2l-6.3-4.5c0,0-7.5,5.8-8,5.9c-0.4,0.1-5.2-1.7-5.2-1.7c-1.8,0.9-12.8,8.2-12.8,8.2L76.6,43
				l-4.5-0.9l-5.9-4.3l-6.8,4.7c0,0-7.6,4.4-7.9,4.4s-9.2-7.1-9.2-7.1l-4.1-4.3c-0.7,0.4-4,1.9-4,1.9l-5.7-4l-10.2,5.8
				c-0.7,3.3-1.1,6.8-1.1,10.4c0,3.1,0.3,6.2,0.9,9.1c4.3-0.8,12.1-1.9,18.6-1.1c9.5,1.2,15.4,2.8,25.3,5c10,2.3,17.3,4.4,28.1,3.2
				c10.1-1.1,17.4-3.2,24.1-8c0.5-2.7,0.7-5.5,0.7-8.3C114.8,45.7,114.3,41.9,113.4,38.2z"/>
			<g>
				<path class="st1" d="M49.8,86.4l-0.6-0.1c-0.1,0-0.2,0-0.3,0c-0.9-0.2-1.3-1-1.7-1.7L45,80.8c-0.4-0.6-0.8-1.5-1.6-1.6
					c2.2-0.3,4.2-1.5,4.2-3.7c0-2.5-2.5-3.7-5-3.7c-1.5,0-2.9,0-4.5,0c-0.9,0-1.9,0-2.7,0c-0.5,0-0.5,0.1-0.5,0.4
					c0,0.4,0.2,0.3,0.7,0.3c1.8,0.1,1.7,0.4,1.7,2v9.9c0,1.4,0.1,1.8-1.4,2c0,0-0.2,0-0.4,0l-0.6,0.1c-0.2,0.1-0.1,0.5,0,0.6
					c0.3,0,0.9,0,0.9,0c0.8,0,1.6-0.1,2.5-0.1c0.8,0,1.6,0.1,2.4,0.1l0,0c0.3,0,0.6,0,0.9,0c0.2-0.1,0.2-0.4,0.1-0.6l-0.6-0.1
					c-0.1,0-0.4,0-0.4,0c-1.5-0.1-1.4-0.5-1.4-2v-3.7c0-0.2,0-0.8,0.1-1c0.1-0.1,0.4-0.1,0.6-0.1c2,0,2,0.2,3,1.9l2.6,4.7
					c0.2,0.4,0.4,0.8,0.9,0.8h2.3c0.3,0,0.6,0,0.9,0C49.9,86.9,49.9,86.6,49.8,86.4z M40.7,79c-0.5,0-1.4,0.2-1.4-0.4v-4.3
					c0-1.7,0.1-1.9,2.1-1.9c2.4,0,3.8,1.2,3.8,3.4c0,1-0.3,1.9-1.2,2.5C43,78.9,41.9,79,40.7,79z"/>
			</g>
			<g>
				<path class="st1" d="M41.2,96.6c0-2.4,0-2.7-1.6-2.8H39c-0.1-0.1-0.1-0.5,0-0.6c1.4,0,2.2,0.1,3.2,0.1s1.8,0,3.1-0.1
					c0.1,0.1,0.2,0.5,0,0.6h-0.6c-1.5,0.1-1.5,0.5-1.5,2.8v7.8c0,1.4,0.1,2,0.5,2.4c0.3,0.2,0.7,0.5,2.7,0.5c2.1,0,2.6-0.1,3-0.3
					c0.5-0.3,1.1-1.1,1.6-2.2c0.1-0.1,0.6,0,0.6,0.1c0,0.2-0.7,2.5-1,3.2c-1.3,0-3.6-0.1-6.2-0.1h-2.3c-1,0-1.8,0-3.2,0.1
					c-0.1-0.1-0.2-0.4,0-0.6l0.7-0.1c1.4-0.1,1.5-0.5,1.5-2.8v-8H41.2z"/>
				<path class="st1" d="M107.6,96.6c0-2.4,0-2.8-1.5-2.9h-0.6c-0.1-0.1-0.1-0.5,0-0.6c1.2,0,2,0.1,3.1,0.1c1,0,1.8,0,3-0.1
					c0.1,0.1,0.2,0.5,0,0.6H111c-1.4,0.1-1.5,0.5-1.5,2.9v8c0,2.4,0,2.7,1.5,2.9l0.6,0.1c0.1,0.1,0.1,0.5,0,0.6c-1.2,0-2-0.1-3-0.1
					s-1.8,0-3.1,0.1c-0.1-0.1-0.2-0.4,0-0.6l0.6-0.1c1.4-0.2,1.5-0.5,1.5-2.9V96.6z"/>
				<path class="st1" d="M88.1,107.5c-0.1,0-0.4,0-0.4,0c-0.3,0-0.5-0.1-0.7-0.3c-0.3-0.3-0.3-1.3-0.3-1.7v-9.9
					c0-0.4-0.1-1.4,0.2-1.7c0.2-0.2,0.5-0.2,0.8-0.2l0,0c0.2,0,0.2,0,0.3,0h0.6c0.2-0.1,0.1-0.5,0-0.6c-0.3,0-0.6,0-0.9,0l0,0H85
					c-0.3,0-0.6,0-0.7,0.3l-5.4,11.3l-4.8-10.9c-0.2-0.4-0.2-0.7-0.7-0.7h-2.6c-0.3,0-0.6,0-0.9,0c-0.1,0.1-0.2,0.5-0.1,0.6h0.6
					c0.1,0,0.4,0,0.4,0c1,0.1,1.1,0.3,1,1.4L71,105.8c-0.1,1.1-0.1,1.6-1.2,1.7c0,0-0.2,0-0.4,0l-0.6,0.1c-0.1,0.1-0.1,0.5,0.1,0.6
					c0.3,0,0.9,0,0.9,0c0.6,0,1.1-0.1,1.7-0.1s1.2,0.1,1.9,0.1l0,0c0.3,0,0.6,0,0.9,0c0.2-0.1,0.2-0.4,0.1-0.6l-0.6-0.1
					c-0.2,0-0.3,0-0.3,0c-1.6-0.1-1.6-1.2-1.5-2.6l0.8-9.9H73l5.2,12.1c0.1,0.2,0.1,0.5,0.4,0.5c0.2,0,0.3-0.3,0.4-0.4l5.8-12.4H85
					v10.8c0,0.4,0.1,1.3-0.4,1.6c-0.2,0.2-1,0.3-1,0.3c-0.1,0-0.2,0-0.3,0l-0.6,0.1c-0.1,0.1-0.1,0.5,0.1,0.6c0.3,0,0.9,0,0.9,0
					c0.8,0,1.7-0.1,2.6-0.1c0.6,0,1.8,0.1,1.8,0.1c0.3,0,0.6,0,1,0.1c0.2-0.1,0.2-0.4,0.1-0.6L88.1,107.5z"/>
				<g>
					<path class="st1" d="M128.8,107.6L128.8,107.6c-0.2-0.1-0.3-0.1-0.4-0.1c-1-0.2-1.4-1.4-1.7-2.2l-5-11.9c0-0.1-0.1-0.5-0.3-0.5
						c-0.3,0-0.3,0.3-0.4,0.5l-4.8,11.8c-0.2,0.5-0.6,1.5-0.9,1.9c-0.2,0.3-0.6,0.3-0.9,0.3c0,0-0.3,0-0.4,0l-0.6,0.1
						c-0.2,0.1-0.1,0.5,0,0.6c0.3,0,0.9,0,0.9,0c0.7,0,1.3-0.1,2-0.1c0.6,0,1.1,0.1,1.7,0.1c0,0,0.6,0,0.9,0
						c0.2-0.1,0.2-0.4,0.1-0.6l-0.6-0.1c-0.1,0-0.3,0-0.3,0c-0.6-0.1-1.3-0.2-1.3-0.8c0-0.4,0.2-0.9,0.3-1.3l0.7-1.8
						c0.4-0.9,0.2-0.9,1.2-0.9h3.4c1.2,0,1,0,1.5,1.2l0.8,1.8c0.1,0.3,0.3,0.8,0.3,1.2c0,0.6-0.6,0.6-1.3,0.7c0,0-0.2,0-0.4,0h-0.6
						c-0.2,0.1-0.1,0.5,0,0.6c0.3,0,0.9,0,0.9,0c0.7,0,1.4-0.1,2.1-0.1c0.9,0,1.7,0.1,2.6,0.1l0,0c0.3,0,0,0,0.4,0
						C128.9,108.1,128.9,107.8,128.8,107.6z M122.2,102h-2.9c-0.1,0-0.9,0.1-0.9-0.1c0-0.1,0.1-0.2,0.1-0.3l1.8-4.4
						c0.1-0.1,0.2-0.7,0.4-0.7s0.4,0.6,0.4,0.7l1.7,4.1c0,0,0.2,0.4,0.2,0.5C122.9,102.1,122.4,102,122.2,102z"/>
				</g>
			</g>
		</g>
	</g>
</g>
</svg>
